HIERARCHY
ROOT hip
{
  OFFSET 0 0 0
  CHANNELS 6 Xposition Yposition Zposition Zrotation Yrotation Xrotation
  JOINT abdomen
  {
    OFFSET 0 20.6881 -0.73152
    CHANNELS 3 Zrotation Xrotation Yrotation
    JOINT chest
    {
      OFFSET 0 11.7043 -0.48768
      CHANNELS 3 Zrotation Xrotation Yrotation
      JOINT neck
      {
        OFFSET 0 22.1894 -2.19456
        CHANNELS 3 Zrotation Xrotation Yrotation
        JOINT head
        {
          OFFSET -0.24384 7.07133 1.2192
          CHANNELS 3 Zrotation Xrotation Yrotation
          JOINT leftEye
          {
            OFFSET 4.14528 8.04674 8.04672
            CHANNELS 3 Zrotation Xrotation Yrotation
            End Site
            {
              OFFSET 1 0 0
            }
          }
          JOINT rightEye
          {
            OFFSET -3.6576 8.04674 8.04672
            CHANNELS 3 Zrotation Xrotation Yrotation
            End Site
            {
              OFFSET 1 0 0
            }
          }
        }
      }
      JOINT rCollar
      {
        OFFSET -2.68224 19.2634 -4.8768
        CHANNELS 3 Zrotation Xrotation Yrotation
        JOINT rShldr
        {
          OFFSET -8.77824 -1.95073 1.46304
          CHANNELS 3 Zrotation Xrotation Yrotation
          JOINT rForeArm
          {
            OFFSET -28.1742 -1.7115 0.48768
            CHANNELS 3 Zrotation Xrotation Yrotation
            JOINT rHand
            {
              OFFSET -22.5879 0.773209 7.07136
              CHANNELS 3 Zrotation Xrotation Yrotation
              JOINT rThumb1
              {
                OFFSET -1.2192 -0.487915 3.41376
                CHANNELS 3 Zrotation Xrotation Yrotation
                JOINT rThumb2
                {
                  OFFSET -3.37035 -0.52449 3.41376
                  CHANNELS 3 Zrotation Xrotation Yrotation
                  End Site
                  {
                    OFFSET -1.78271 -1.18214 1.43049
                  }
                }
              }
              JOINT rIndex1
              {
                OFFSET -7.75947 0.938293 5.60832
                CHANNELS 3 Zrotation Xrotation Yrotation
                JOINT rIndex2
                {
                  OFFSET -2.54057 -0.884171 1.56538
                  CHANNELS 3 Zrotation Xrotation Yrotation
                  End Site
                  {
                    OFFSET -1.62519 -0.234802 1.16502
                  }
                }
              }
              JOINT rMid1
              {
                OFFSET -8.24714 1.18213 3.41376
                CHANNELS 3 Zrotation Xrotation Yrotation
                JOINT rMid2
                {
                  OFFSET -3.10165 -0.590103 1.0647
                  CHANNELS 3 Zrotation Xrotation Yrotation
                  End Site
                  {
                    OFFSET -2.48547 -0.328903 0.83742
                  }
                }
              }
              JOINT rRing1
              {
                OFFSET -8.82822 0.546677 1.51678
                CHANNELS 3 Zrotation Xrotation Yrotation
                JOINT rRing2
                {
                  OFFSET -2.60934 -0.819778 -0.0198488
                  CHANNELS 3 Zrotation Xrotation Yrotation
                  End Site
                  {
                    OFFSET -2.33842 -0.294052 0.168128
                  }
                }
              }
              JOINT rPinky1
              {
                OFFSET -8.27202 -0.0477905 -0.4584
                CHANNELS 3 Zrotation Xrotation Yrotation
                JOINT rPinky2
                {
                  OFFSET -1.82734 -0.647385 -0.700984
                  CHANNELS 3 Zrotation Xrotation Yrotation
                  End Site
                  {
                    OFFSET -1.69225 -0.51767 -0.607171
                  }
                }
              }
            }
          }
        }
      }
      JOINT lCollar
      {
        OFFSET 2.68224 19.2634 -4.8768
        CHANNELS 3 Zrotation Xrotation Yrotation
        JOINT lShldr
        {
          OFFSET 8.77824 -1.95073 1.46304
          CHANNELS 3 Zrotation Xrotation Yrotation
          JOINT lForeArm
          {
            OFFSET 28.1742 -1.7115 0.48768
            CHANNELS 3 Zrotation Xrotation Yrotation
            JOINT lHand
            {
              OFFSET 22.5879 0.773209 7.07136
              CHANNELS 3 Zrotation Xrotation Yrotation
              JOINT lThumb1
              {
                OFFSET 1.2192 -0.487915 3.41376
                CHANNELS 3 Zrotation Xrotation Yrotation
                JOINT lThumb2
                {
                  OFFSET 3.37035 -0.52449 3.41376
                  CHANNELS 3 Zrotation Xrotation Yrotation
                  End Site
                  {
                    OFFSET 1.78271 -1.18214 1.43049
                  }
                }
              }
              JOINT lIndex1
              {
                OFFSET 7.75947 0.938293 5.60832
                CHANNELS 3 Zrotation Xrotation Yrotation
                JOINT lIndex2
                {
                  OFFSET 2.54057 -0.884171 1.56538
                  CHANNELS 3 Zrotation Xrotation Yrotation
                  End Site
                  {
                    OFFSET 1.62519 -0.234802 1.16502
                  }
                }
              }
              JOINT lMid1
              {
                OFFSET 8.24714 1.18213 3.41376
                CHANNELS 3 Zrotation Xrotation Yrotation
                JOINT lMid2
                {
                  OFFSET 3.10165 -0.590103 1.0647
                  CHANNELS 3 Zrotation Xrotation Yrotation
                  End Site
                  {
                    OFFSET 2.48547 -0.328903 0.83742
                  }
                }
              }
              JOINT lRing1
              {
                OFFSET 8.82822 0.546677 1.51678
                CHANNELS 3 Zrotation Xrotation Yrotation
                JOINT lRing2
                {
                  OFFSET 2.60934 -0.819778 -0.0198488
                  CHANNELS 3 Zrotation Xrotation Yrotation
                  End Site
                  {
                    OFFSET 2.33842 -0.294052 0.168128
                  }
                }
              }
              JOINT lPinky1
              {
                OFFSET 8.27202 -0.0477905 -0.4584
                CHANNELS 3 Zrotation Xrotation Yrotation
                JOINT lPinky2
                {
                  OFFSET 1.82734 -0.647385 -0.700984
                  CHANNELS 3 Zrotation Xrotation Yrotation
                  End Site
                  {
                    OFFSET 1.69225 -0.51767 -0.607171
                  }
                }
              }
            }
          }
        }
      }
    }
  }
  JOINT rButtock
  {
    OFFSET -8.77824 4.35084 1.2192
    CHANNELS 3 Zrotation Xrotation Yrotation
    JOINT rThigh
    {
      OFFSET 0 -1.70687 -2.19456
      CHANNELS 3 Zrotation Xrotation Yrotation
      JOINT rShin
      {
        OFFSET 0 -36.8199 0.73152
        CHANNELS 3 Zrotation Xrotation Yrotation
        JOINT rFoot
        {
          OFFSET 0.73152 -45.1104 -5.12064
          CHANNELS 3 Zrotation Xrotation Yrotation
          End Site
          {
            OFFSET -1.1221 -3.69964 12.103
          }
        }
      }
    }
  }
  JOINT lButtock
  {
    OFFSET 8.77824 4.35084 1.2192
    CHANNELS 3 Zrotation Xrotation Yrotation
    JOINT lThigh
    {
      OFFSET 0 -1.70687 -2.19456
      CHANNELS 3 Zrotation Xrotation Yrotation
      JOINT lShin
      {
        OFFSET 0 -36.8199 0.73152
        CHANNELS 3 Zrotation Xrotation Yrotation
        JOINT lFoot
        {
          OFFSET -0.73152 -45.1104 -5.12064
          CHANNELS 3 Zrotation Xrotation Yrotation
          End Site
          {
            OFFSET 1.1221 -3.69964 12.103
          }
        }
      }
    }
  }
}
MOTION
Frames:	4
Frame Time:	0.03333
0.18097665160894394 60.48173904418945 -0.06922027096152306 -6.991624959914233 5.864042690215169 2.3192895569773833 -2.5736991625215486 15.287044239924692 4.161484424013852 2.6989091231691646 -10.307325778344937 1.3355565140057817 -4.922793103715929 15.327455054149072 -2.9915669342917552 8.675304156362811 -24.959558576430304 -4.582878494386489 0.05373029675571355 -0.03159213287139484 -0.026367344981239205 -0.22139631307773205 -0.06589969282469287 0.019953477185479886 0.0970495175864765 -0.061474077088068395 -0.009378870256739042 43.70336497039303 27.76902028773165 14.956060102935043 -24.27892339544936 -30.192537037339545 63.803570093892134 -4.932728040750535 -9.99761511929894 -5.732664001529973 0.13212712800784057 -0.006423472749279648 0.08154069262188984 0.044525576312489996 -0.07481023488592986 0.00357005450180104 -0.07649032801962076 0.06645507258157952 0.13250460268118955 7.739695452344357 5.658440335819445 0.4799978405032872 0.06096776263541476 -0.035925781178062145 0.014463966104133369 2.985352742807513 1.068818950618272 0.0857048001587101 0.0562063737319754 0.06734662571167775 0.07915559589980668 10.14489790346651 0.7207507496062767 -0.00660479292740233 -0.041199274186693786 0.11580222883956963 0.043058473023112415 2.365245417590756 -0.6951641139234684 -0.11687259418770467 0.05771146994861118 0.045475559576503566 -0.05011651303496856 -51.87813493513074 30.160298544457085 -21.84737263583024 23.39396310544749 -28.46800647946512 -60.56020695518739 5.606427591516152 -14.244238278203824 5.175096876561615 -0.07637304086496695 0.06857707361848497 0.012737022141604402 -0.01713513035856371 0.08788551147400857 0.07337896340926839 -0.029625198472989837 0.04855445410787193 0.04277539369852712 -7.890623849981421 5.538405737571995 -0.38270515751018763 -0.04025395999730816 -0.023004770815690526 -0.024382307913491025 -2.931200655190125 0.9132578704549407 -0.08850572466715745 0.060404325389741595 -0.04504691184523238 0.021701031777437894 -10.357080291353896 0.7159472056290537 0.1308108224887322 -0.05448948829021633 0.05369451830385032 -0.07936637126872505 -2.2042627680520215 -0.7790677051526389 0.4115916816966112 -0.05673112435930278 0.01036267763137872 -0.01493231430995526 -29.46296013586088 -35.24794594775409 -28.39508908743336 -6.496498570564485 60.2509838008934 7.446303822772813 -4.98683039605303 -10.081936365923687 -9.676221421677637 -0.0031125919099688577 0.07872944278840813 -0.08917783128974258 33.709015535291 -33.06996596107169 30.279724402094757 6.67798694209548 61.14680409167559 -8.105618568259558 5.246033086847252 -10.02279973431607 12.771115884620167
-0.1439899206161499 64.49246406555176 -0.11500930413603783 -4.041300842265131 4.23308316264898 5.0728224777034905 -2.7461996454350404 14.22701766375893 2.9959811574862876 2.8819669441053803 -9.278426935547863 0.8852931550022044 -5.1539348160788 15.63292672704143 -4.747213699590643 9.282744468876958 -25.574490752690306 -6.7718290455364 0.013153423557137172 -0.08613925088273315 0.0043523913062451765 0.08730497207498393 0.01806307559033341 0.0016689540556499712 -0.05301987704075289 0.08721759367837537 0.03306835419651012 53.4116729132441 30.715193357912675 15.32926846937371 -23.829018834820623 -28.554900146086023 65.81510861578508 -3.8523120692518167 -9.510104390873757 -4.036132523497547 -0.13487403799294928 0.08723827100887052 -0.22222257920431848 -0.026196230066231875 0.056988323670236075 0.05994595566341027 0.02361196396073408 -0.0463152993184449 -0.09458648733874642 7.855374951222277 5.432551038928314 0.4620392454629138 -0.0634125434714562 -0.03976712225595963 0.04064023921138411 2.864921566701379 0.8610426750757799 0.030617430192279638 -0.002189182350694868 -0.08618770253715793 -0.10756480725712268 10.507004651182967 0.7236633450396112 0.05561764344203203 0.13887217993706616 -0.12944905352296088 -0.10036514754169455 2.142749017169829 -0.9475408310550562 -0.32847921847239864 -0.06650042930653664 -0.04315542969281486 -0.06643255430165965 -63.23154858109273 33.53326110756824 -25.569777922163 22.728875142564792 -26.45746004254912 -62.25793926585327 5.10679669240878 -11.38113909135037 3.4210379168013443 -0.01606983429145328 -0.16387704892123328 -0.04713748333978519 0.14526942582715002 -0.037069064131672366 -0.011896375265163928 0.05164295359276063 -0.01901116454406936 -0.0038647131314636213 -7.639668185723166 5.474230133904201 -0.5868191176362305 0.10822936331902376 -0.11174899181484307 -0.13940045238068435 -3.0208646038497022 0.9874343651715138 -0.18440387513081077 -0.09214581528837756 0.03149261488075364 0.06736452827782259 -10.272082002227672 0.7302046919129264 -0.24893680974998708 0.22371201401063084 -0.03765739421521905 0.06696776365615362 -2.1898820181979715 -0.7651491670063281 0.03374444287274222 -0.04336876638267198 0.07212114138492823 0.018770720540943753 -32.57630379352526 -36.21652482866984 -27.365743721019292 -4.425409763732315 63.65635219652168 5.9552620010148045 -4.563435080253579 -9.648017863047361 -10.588489661754865 0.12072065873306638 0.06386668435019593 0.17756336063576367 36.81312819229211 -33.407927136298504 29.339231259046098 3.428446751060104 63.81055054722388 -4.593094322950713 5.243470058361204 -10.021661654045616 15.6127076595509
0.23591145873069763 60.50410270690918 -0.31728073954582214 -21.813308774892093 -30.724987849182476 -7.494312368675186 4.439675894474356 13.284513029999701 8.041994502367244 -0.322980115777745 -8.369216912671506 2.3344824590124302 -2.2580483733317562 12.739845571052557 2.579575046198464 4.976107425942933 -22.86936871869737 5.545028032859145 -0.22808789743236116 0.32271448545205494 0.07803006876999585 0.12288577533910754 0.31970333252343136 0.31658145582505953 0.1586267678836091 -0.253208372704316 -0.19625107837003591 61.52189076013601 42.34626443891945 -2.280310307714355 -24.836130227939 -31.280483719285026 69.56302465866783 -4.635128160876618 -13.525698962423897 -5.840532325318338 0.33379411950287347 -0.11438288351352924 -0.07964451471441794 0.14939256556916342 0.17513952393448184 -0.13108365652956244 -0.06260380638504437 0.0350751558221311 0.27299807209206106 7.487889429534435 5.28710728319477 0.7350314478611569 -0.17199056660326795 -0.03794175420027372 -0.010479778023047415 3.0343375788743754 0.9504933937672057 -0.17063203930930979 0.23535866048426618 0.040164874053407094 0.3480093439912567 9.74722806828909 0.7576149347432751 -0.12665812083421732 0.001839455320849059 0.5638692551381645 -0.3691743926818337 1.987735739522274 -0.7365922528082106 0.15275584676601292 -0.034891381044775446 0.22119791742668435 -0.012457838159280131 -57.90219102835273 25.695217761364866 -23.709060222427688 22.172153253506224 -25.461000329441376 -58.22056663613454 1.0335949180165758 -9.845446188553872 4.031574652887032 -0.20708317142429433 -0.2690869350185825 0.007580122596538995 0.0195957060070608 0.2495790342949534 -0.01673897938670297 0.1734014809145516 0.10013513558530909 -0.009249676961783986 -7.873009645885604 5.084683954970863 -0.33358035592619323 0.13761625222300364 0.05187363255980723 -0.2542854081590624 -2.8957993578351258 1.0459513705553634 -0.15947123006103125 0.13672656672275657 -0.1663444547589004 0.19998577778343127 -10.049364901319189 0.4665133395343895 0.07438630959013949 -0.02413185875044841 0.0008930472339791672 -0.09682326757021982 -2.300959250235773 -1.0504984622735936 0.4402720729083179 -0.22827367324170023 0.2940857475459465 -0.022587782430775957 -8.446647352197356 -16.48626153363885 -6.161324966292681 5.2248607810806815 52.850132325726086 -3.6887597744812766 -9.747578115484052 -16.31001533229584 -23.80378982357389 -0.034979373091192256 -0.12975866653164608 -0.2300462140530243 49.40528202160055 -49.825232787624195 38.184763366319494 2.201952883452088 65.74442981825379 -2.2996030307987025 0.5956416943314772 -0.6350623979304701 3.658278347762802
0.28828568756580353 66.42254590988159 0.4469567909836769 -17.113940550437388 -49.32528001585219 -0.17808069410453925 4.891698667519446 12.401046843878769 12.139302042052833 -3.692762692221727 -8.649219663922533 3.113891140015041 -1.5142187880459768 12.500934091621973 5.6406540963339085 3.1562248659341914 -25.988403631487664 11.129407346847673 0.17673560040529632 0.1368080487451207 0.3122799307518324 -0.1653646427781209 0.12370433082245125 0.9155973169673759 0.13479122194926288 -0.5989034298252756 -0.007445019587126292 72.98920464069714 49.873365130705274 -14.286364323683525 -27.445023434262925 -35.645391240462544 73.26614149078448 -0.7240486637583351 -1.6347598875090659 -1.7478968484684496 0.7915858410756856 -0.07643995537449193 0.3634317777350133 0.7049929162216755 -0.20690966861112015 0.15399702020425116 0.45420822013608264 0.09315662992468657 0.5155302988346918 8.925588754535113 5.779732542647824 1.0475296778621652 -0.05632184661763093 -0.44103620032171303 -0.452301636862297 2.168654003700983 0.6449390115528673 -0.029760668338266166 -0.8631842061848434 -0.291452496177495 -0.04171399297367772 10.030536631098402 1.283503855784526 -0.045304377960430124 -0.37070702309856113 0.5800672621982613 -0.4967500533815071 2.507064050422316 -0.33791667227550504 0.6076416963729548 -0.06166337471369824 -0.3671119957176072 -0.42142672721460644 -63.99542327748862 33.4818161227397 -11.61322721180011 28.945935306258423 -34.431670040045866 -75.73022785651496 -2.158309468759587 -27.530479346063537 7.174379477762619 0.10138012432452903 0.08144755125316908 -0.1603963204871713 -0.2681866307086102 0.8019341112767838 0.24559695396755662 -0.23647555649612192 -0.22539867052922732 0.9020179404020384 -8.801991358861855 6.5728891137892 -0.6677056328821065 -0.09001218158554194 0.09652631442388293 -0.059883283341690116 -2.7758956003989637 0.6566796798492961 -0.210419745514272 -0.7777181558221796 -0.5885035063185792 0.08990788779856702 -9.980452561461991 0.5073955435332066 0.17351818109982362 0.1731311548338072 -0.05081927546753941 0.9043160856143362 -2.7219977238847464 -1.5223894018406046 -0.4377703026813891 -0.18405262731665759 0.22288870941137987 -0.03507710349326162 -4.827841521421704 -11.739899900147167 -5.044969820041825 -1.4100887121677244 56.73225475561042 2.4796922807669013 -16.004857848105303 -19.813869933113825 -30.05194100836942 0.5298903980386733 -0.3509215658986209 -0.04454884164435036 46.65946401298538 -56.76656962600057 36.17995941094818 -5.849142632540786 62.33203315796956 6.325335310624435 -1.618421754849278 6.438673762164335 0.44291434226090787
